Coordinates
version=1
nRows=14
nColumns=24
inDegrees=yes

Units are S.I. units (second, meters, Newtons, ...)
Angles are in degrees.

endheader
time	pelvis_tilt	pelvis_list	pelvis_rotation	pelvis_tx	pelvis_ty	pelvis_tz	hip_flexion_r	hip_adduction_r	hip_rotation_r	knee_angle_r	ankle_angle_r	subtalar_angle_r	mtp_angle_r	hip_flexion_l	hip_adduction_l	hip_rotation_l	knee_angle_l	ankle_angle_l	subtalar_angle_l	mtp_angle_l	lumbar_extension	lumbar_bending	lumbar_rotation
      5.60000000	     35.78935970	     -1.08142733	     -1.20480865	      0.71848062	      0.67660182	     -0.19881011	    -17.50636496	     -4.58378826	    -13.86671287	    -63.63090891	     10.98921958	      3.08746630	      0.00000000	    -29.87855218	      3.17042620	     -0.60822763	    -16.30287842	     17.35196900	      8.48659110	      0.00000000	    -61.28607311	      2.13921352	     -5.51485840
      5.60500000	     35.68120138	     -1.02349419	     -0.70819802	      0.72367141	      0.67716604	     -0.19869335	    -16.75498756	     -4.31646021	    -14.30201864	    -62.72341147	     11.56553997	      3.42342810	      0.00000000	    -30.52318422	      2.87009467	     -0.59462483	    -15.73791238	     17.48534205	      9.03967880	      0.00000000	    -61.28896805	      2.41626430	     -5.83850938
      5.61000000	     35.56714437	     -0.95894394	     -0.22881305	      0.72885976	      0.67764413	     -0.19857415	    -16.02680488	     -4.07324141	    -14.72039379	    -61.72256941	     12.08569301	      3.69303286	      0.00000000	    -31.14629516	      2.58282973	     -0.59358301	    -15.19873812	     17.62660572	      9.58827426	      0.00000000	    -61.28756161	      2.68130787	     -6.15566969
      5.61500000	     35.46439439	     -0.87269400	      0.25978430	      0.73405558	      0.67804862	     -0.19843228	    -15.35567808	     -3.85456981	    -15.15177071	    -60.61495240	     12.55127721	      3.87026862	      0.00000000	    -31.76445459	      2.30424750	     -0.57604285	    -14.68966198	     17.77869077	     10.12479351	      0.00000000	    -61.29370369	      2.93113483	     -6.48585948
      5.62000000	     35.34443723	     -0.78446238	      0.70502888	      0.73922725	      0.67835620	     -0.19828331	    -14.68168670	     -3.65624594	    -15.51286771	    -59.42710617	     12.95682476	      4.00138257	      0.00000000	    -32.34652517	      2.05418423	     -0.56353467	    -14.20978545	     17.92711390	     10.60402551	      0.00000000	    -61.28884198	      3.16042089	     -6.78960998
      5.62500000	     35.31078922	     -0.62617861	      1.24306653	      0.74437935	      0.67863133	     -0.19815706	    -14.18637122	     -3.51034246	    -16.00769413	    -58.10135811	     13.33714836	      3.95463838	      0.00000000	    -32.99524618	      1.80886924	     -0.43659291	    -13.77080581	     18.09427309	     11.06156734	      0.00000000	    -61.36897072	      3.39671751	     -7.15948602
      5.63000000	     35.15737333	     -0.54050038	      1.59686041	      0.74959160	      0.67875646	     -0.19795306	    -13.53625035	     -3.35552985	    -16.27067646	    -56.73316544	     13.64080183	      3.99649573	      0.00000000	    -33.51157484	      1.61093209	     -0.44056731	    -13.36694109	     18.24544307	     11.40913728	      0.00000000	    -61.32289171	      3.54756150	     -7.41882690
      5.63500000	     35.04831489	     -0.38651825	      2.02853389	      0.75477637	      0.67881241	     -0.19777473	    -12.99500042	     -3.24798493	    -16.61429149	    -55.26454912	     13.89799804	      3.86597080	      0.00000000	    -34.05855882	      1.42165370	     -0.34904102	    -12.98048117	     18.45106668	     11.81539736	      0.00000000	    -61.32725845	      3.72095747	     -7.73537616
      5.64000000	     34.95826166	     -0.22494270	      2.44385437	      0.75996139	      0.67880372	     -0.19760504	    -12.52261513	     -3.16272782	    -16.94784525	    -53.68740754	     14.12304216	      3.70019127	      0.00000000	    -34.60442735	      1.25432018	     -0.21236760	    -12.64389253	     18.64559077	     12.11020870	      0.00000000	    -61.34919954	      3.86962999	     -8.04673805
      5.64500000	     34.87248231	     -0.03126611	      2.83329606	      0.76514059	      0.67870663	     -0.19740298	    -12.09152551	     -3.12043345	    -17.25440425	    -52.02921316	     14.34100571	      3.47365381	      0.00000000	    -35.14141097	      1.12894787	     -0.05633020	    -12.33819159	     18.84464025	     12.32787795	      0.00000000	    -61.38551595	      3.97190282	     -8.33699456
      5.65000000	     34.78454598	      0.16540213	      3.19204470	      0.77035192	      0.67853774	     -0.19722211	    -11.70320174	     -3.09547550	    -17.52120092	    -50.26785681	     14.49783461	      3.20899047	      0.00000000	    -35.66053599	      1.02828075	      0.12612457	    -12.08106614	     19.05897915	     12.51974826	      0.00000000	    -61.39609935	      4.07148404	     -8.62454024
      5.65500000	     34.69083613	      0.38108245	      3.51930309	      0.77556424	      0.67828470	     -0.19700478	    -11.34618436	     -3.09881369	    -17.75546109	    -48.42291611	     14.64225804	      2.91160611	      0.00000000	    -36.16438814	      0.96181789	      0.31812813	    -11.84781668	     19.27418530	     12.64996758	      0.00000000	    -61.41115687	      4.12705821	     -8.89759770
      5.66000000	     34.59568545	      0.61036113	      3.82534421	      0.78078453	      0.67795508	     -0.19678127	    -11.03289473	     -3.12472409	    -17.97270574	    -46.48370906	     14.76399352	      2.58876620	      0.00000000	    -36.65352766	      0.91969516	      0.52101715	    -11.64954605	     19.50191021	     12.74538174	      0.00000000	    -61.42602450	      4.15847978	     -9.15741322
      5.66500000	     34.50907815	      0.85824881	      4.12034528	      0.78601879	      0.67756247	     -0.19656071	    -10.78267052	     -3.17391402	    -18.18769477	    -44.44425091	     14.86832712	      2.25654838	      0.00000000	    -37.14090125	      0.89932405	      0.74236565	    -11.48415546	     19.74120302	     12.81010407	      0.00000000	    -61.44634047	      4.17229557	     -9.41251130
